<svg id="Layer_1" xmlns="http://www.w3.org/2000/svg" viewBox="0 0 476.1 324.5">
  <style>

@keyframes fadeIn 
{ from { opacity:0; } 
to { opacity:1; } 
}

.st0 {
  fill:#fff;
  stroke:#231F20;
  stroke-miterlimit:10;
    opacity:0.6;  /* make things invisible upon start */
  -webkit-animation:fadeIn ease-in 0.6;  /* call our keyframe named fadeIn, use animattion ease-in and repeat it only 1 time */
  -moz-animation:fadeIn ease-in 0.6;
  animation:fadeIn ease-in 0.6;


  -webkit-animation-duration:2s;
  -moz-animation-duration:2s;
  animation-duration:2s;
} 

.st1 {
  fill:#fff;
  opacity: 0.5;
   /* make things invisible upon start */
  -webkit-animation:fadeIn ease-in 0.5;  /* call our keyframe named fadeIn, use animattion ease-in and repeat it only 1 time */
  -moz-animation:fadeIn ease-in 0.5;
  animation:fadeIn ease-in 0.5;

  -webkit-animation-duration:2s;
  -moz-animation-duration:2s;
  animation-duration:2s;
}
.st1:hover {
  fill:#FFC20E;
  opacity: 1;
}
  </style>
  <title>
    logo
  </title>
  <path class="st0" d="M126.9 142.3l-8.7-5c-6.6-3.7-11.3-6.8-13.9-9.4-2.6-2.6-4-5.3-4-8.2 0-3.2 1.6-6.3 4.4-8 2.9-2 6.7-3 11.5-3 9.2 0 21.1 4.4 35.6 13.2V97.7c-12.7-6.8-25.1-10.2-37.2-10.2-11.6 0-21.1 3-28.5 9-7.2 5.5-11.3 14.2-11.1 23.2.1 7.4 2.7 14.6 7.4 20.3 4.9 6.2 15.2 13.7 30.9 22.5 7.9 4.5 13 7.9 15.4 10.3 2.4 2.4 3.7 5.6 3.6 8.9 0 3.5-1.8 6.5-5.5 9-3.9 2.6-8.5 3.9-13.2 3.8-4.9 0-11-1.5-18.2-4.5-7.5-3.1-14.5-7.1-21.1-11.8v26.3c6.9 3.5 14.2 6.4 21.6 8.7 6.4 1.6 13 2.4 19.6 2.4 12.4 0 22.6-3.2 30.5-9.7 7.7-6 12.1-15.2 11.9-24.9-.2-14.2-10.5-27.1-31-38.7z"/>
  <path class="st1" d="M382.2 42.9c-.5.2-1.1.5-1.6.8-1 .4-1.9.9-2.8 1.5-1.3 1.1-2.8 2-4.5 2.6-.6.3-1.1.6-1.7.9-.7.5-1.4.9-2.2 1.2-2 .4-3.5 1.7-5.1 2.8-.6.5-1.4.7-2.2.5-.6 0-1.1.1-1.6.4-.2.1-.3.3-.5.4-.9.3-1.7.6-2.6 1-.6.2-1.3 0-1.8-.5-.8-.9-1-2.2-2.2-2.9-.5-.3-.7-1-1.2-1.3-1.5-1-3.1-1.7-4.6-2.7-.7-.4-1.3-1-1.7-1.6-.6-1 0-3.7 1.1-4.2.9-.5 1-1.4 1.6-2 .5-.5-.2-2.3-.8-2.7-.9-.2-1.8-.1-2.6.3-1.1 1.3-2.3 2.6-3.4 4-.8 1-1.2 1.2-2.3.6-.2-.1-.3-.2-.5-.4-1.3-.7-1.9-2.2-1.4-3.5.3-1.1.7-2.1 1-3.1.3-1.3-1-2.6-2.2-2.1-.7.4-1.3 1-1.6 1.8-.6 1.1-1 2.3-1.5 3.4-.1.2-.4.4-.7.5-.6.1-1.1.2-1.7.2-1.4.3-2.8-.6-3.1-2.1-.1-.5-.4-1.1-.5-1.6-.3-.8-.6-1.7-.7-2.6 0-.6.5-1.3.7-2 .4-1.3.8-2.7 1.3-4 .2-.6 0-1.3-.4-1.7-.8-.7-2-.8-2.8-.1-1 1.4-.9 3.1-1.3 4.6-.2.7-.1 1.5-.3 2.2-.3 1-.5 1.9-.7 2.9 0 .7-.4.7-.8.8s-.7-.2-.7-.8c-.1-1.3-.9-2.5-2.1-3.2-1.6-.8-3.7.4-4.6 1.6-.7 1.1-1.7 2.1-2.8 2.9-1.3.7-2.5 1.5-3.8 2.2-.3.2-.7.2-1 .2-1.9-.2-2.4-1.7-2.9-3.1-.4-1-.6-2.1-1.1-3.2-.2-.4-.7-.9-1-.9-.5.1-1 .3-1.4.7-.8.8-.6 2-.9 3-.5 2.3-.9 4.6-1.3 6.9-.1.4-.6.8-.9 1-1 .4-2 1.1-2.7 2-.8 1.2-1.5 2.5-2.2 3.7l-.3.6c-.5.6-1 1.2-1.4 1.9-.7 1.2-2.1 1.9-2.3 3.4l-.1.1c-.7 1.2-2 1.3-3.1 1.4-1.4.1-3.2 1.4-3 3.3.2 1.5.2 3.1.3 4.7-.1.5-.2 1-.4 1.4-.3 1.3-.7 2.5-1 3.8-.1.4-.4.8 0 1.3.1.2-.1.7-.3 1-.7 1.4-2 2.3-2.6 3.7-.4.6-.3 1.4.1 2 .7.9.8 2.2.2 3.2-.6 1-.8 2.1-.7 3.2.1.8.3 1.6.5 2.4.3 1.4.3 2.9 1.5 4 .2.3.3.7.3 1.1.1.8 0 1.5.1 2.3s.1 1.4.1 2.1c-.1.7.2 1.4.6 1.9.3.4.6.9.8 1.3.2.8.9 1.5 1.7 1.8 1.1.5 1.6 1.7 1.2 2.8l-1 2.2c.6.2 1.1.3 1.7.3.8-.1 1.6-.3 2.1.3.7.8 1.4 1.7 2.1 2.6 0 0-.1.1-.1.2-.1 1.3.7 2.5 2 2.8-.2.1-.4.3-.5.5-.1.2-.2.5-.3.7.3 0 .6.2.8.1.8-.3 1.6-.3 2.4 0 .4.4.9.7 1.3 1.1.9.6 1.8 1.1 2.7 1.5.6.3 1.2.8 1.5 1.4.3.6.7 1.1 1.2 1.6 1.1.6 2.4.8 3.6.4.7-.3 1.5-.4 2.3-.4 1.3.2 2.7.5 4 .9.9.2 1.8.5 2.6 1 1.6 1.2 3.2.9 4.8.3.9-.4 1.6-1.1 2.8-.7s2.2.4 3.3.8c1.3.4 2.5 1.2 4 .9 1.8-.3 2.3-.6 3-2.4.3-.8.5-1.6 1.5-1.8.8-.1 1.6-.3 2.4-.7 1.4-.6 2.4-.1 3.6.5 1.6.8 3.3 1.5 5 2.1.7.1 1.3-.2 1.6-.9.3-.5.2-1.1-.1-1.5-.3-.4-.6-.8-1-1.3l1.2-.1v-.2c-.3-.1-.5-.3-.8-.5-.6-.5-1.6-.5-1.9-1.3-.1-.5-.2-1-.4-1.4-.2-.6 0-1.2.4-1.6.8-.8 1.8-1.3 2.9-1.6.8-.3 1.6-.6 2.4-1 .9-.5 1.8-1.1 2.6-1.8 1.3-1 2.9-1.5 4.2-2.4 1-.6 1.6-1.7 1.4-2.8-.3-1.7.6-2.2 1.5-2.2.5 0 .9 0 1.4.1 1.4 0 2.8-.5 3.8-1.6.3-.9.2-1.9-.5-2.7l-1.8-1.5c-.7-.8-1.5-1.5-1.1-2.7.3-.9.6-1.8.8-2.7.2-1.2.3-2.4.5-3.6.2-.8.1-1.8 1.1-2.2.4-.2.9-.2 1.4-.3 1.4-.2 2.9-.4 4.3-.5 1-.1 2 .1 3 .2 1 0 1.8-.7 2-1.6 0-.6-.8-1.3-1.8-1.5-1.2-.3-2.3.4-3.4.5-.3 0-.7.1-1 .2-.7.3-1.5.1-2-.4-.7-1-1.4-1.9-2.1-2.9-.8-1.2-1.2-2.6-1.4-4.1-.1-1.3-.6-2.4-1.5-3.3-.5-.4-.9-.8-1.2-1.4-.4-1 .7-3.6 1.6-4s2.1-1 3.2-1.4c.7-.2 1.3-.5 2-.8.7-.3 1.4-.7 2-1.2.5-.5.6-1.2.2-1.8-.3-.5-.6-1.2-1.5-.8-.4.1-.9 0-1.3-.1-.2-.1-.3-.2-.4-.3 0-.1.1-.5.1-.5.8-.1 1.2-.7 1.8-1.1 1.2-.9 2.7-1.3 3.8-2.5 1-.9 2-1.6 3.2-2.2 1.5-1.1 3.1-2 4.8-2.8 1.1-.5 2.2-1.2 3.3-1.7.6-.3 1.2-.7 1.8-1.1.4-.2.7-.6.3-.9-.2-.6-.8-.5-1.1-.4z"/>
  <path class="st0" d="M268.6 213.6c-3.4-3.4-7.4-6.2-11.8-8.1-4.4-1.9-14.1-4.5-29.3-7.8-9.1-2-15.3-3.9-18.8-5.7-3.5-1.8-5.2-4.2-5.2-7.1 0-5 4.6-8.2 13.9-9.6 13.2-2 22.7-4.7 28.5-7.9 5.9-3.4 10.8-8.4 14.2-14.3 3.5-5.7 5.5-12.3 5.5-19.1.1-4.8-.9-9.5-2.8-13.9-1.9-4-5.3-8.5-10.1-13.5 8.2-.1 16.4-1 24.4-2.7-3.5-8.1-5.7-16.8-6.3-25.7-10 5.5-21 8.6-32.4 9.2h-11.7c-16.7 0-29.9 3.8-39.5 11.5s-14.5 18.1-14.5 31.3c0 18 9.1 31.1 27.3 39.2-6 1.5-10.8 3.9-14.3 7.1s-5.3 6.8-5.3 10.8c0 5.2 4.1 10.5 12.4 15.8-20.7 4.8-31.1 15.7-31.1 32.5 0 11.9 5.3 21.3 15.8 28.4s24.7 10.6 42.4 10.6c17.5 0 31.5-3.5 42-10.5s15.7-16.4 15.6-28.1c0-9-3-16.4-8.9-22.4zm-73.8-81.9c-.1-6.1 2.5-12 7-16.2 4.5-4.4 10.7-6.9 17-6.7 7 0 12.8 2.2 17.5 6.5 4.6 4.1 7.1 10 7 16.2.1 6.1-2.4 11.9-6.9 16-4.6 4.3-10.4 6.4-17.3 6.4s-12.7-2.1-17.4-6.3c-4.6-4-7.1-9.8-6.9-15.9zm49.7 118.6c-6 3.2-14.4 4.8-25.2 4.8-23 0-34.5-6.4-34.5-19.1 0-5.5 2.6-10 7.9-13.5 5.3-3.5 12-5.2 20.3-5.2 11.9 0 21.7 1.8 29.2 5.5s11.3 8.3 11.3 14.1c0 5.7-3 10.2-9 13.4z"/>
</svg>