<?xml version="1.0" encoding="utf-8"?>
<!-- Generator: Adobe Illustrator 21.1.0, SVG Export Plug-In . SVG Version: 6.00 Build 0)  -->
<svg version="1.1" id="Layer_1" xmlns="http://www.w3.org/2000/svg" xmlns:xlink="http://www.w3.org/1999/xlink" x="0px" y="0px"
	 viewBox="0 0 476.1 324.5" style="enable-background:new 0 0 476.1 324.5;" xml:space="preserve">
<style type="text/css">
	.st0{fill:#FFCC00;}
	.st1{fill:#D0CCD0;}
</style>
<title>logo</title>
<g>
	<g>
		<path class="st0" d="M428.3,28.4c-0.7,0.3-1.3,0.7-2,1.1c-1.2,0.6-2.6,1.1-3.7,1.9c-1.8,1.5-3.6,2.6-5.8,3.3
			c-0.8,0.3-1.4,0.8-2.2,1.2c-0.9,0.5-1.8,1.3-2.8,1.5c-2.6,0.5-4.6,2.3-6.7,3.6c-0.9,0.6-1.7,0.9-2.9,0.7c-0.7-0.1-1.4,0.3-2.1,0.5
			c-0.2,0.1-0.4,0.4-0.6,0.5c-1.1,0.4-2.2,0.8-3.3,1.2c-0.9,0.3-1.7,0-2.3-0.7c-1.1-1.1-1.3-2.9-2.8-3.7c-0.6-0.4-0.9-1.3-1.6-1.7
			c-1.9-1.2-4-2.3-6-3.5c-0.8-0.5-1.6-1.3-2.2-2.1c-0.8-1.2,0.1-4.8,1.4-5.5c1.2-0.6,1.3-1.8,2.1-2.6c0.6-0.6-0.2-3-1-3.5
			c-0.5-0.4-2.9-0.1-3.3,0.4c-1.5,1.7-3,3.4-4.4,5.2c-1,1.3-1.6,1.6-3,0.8c-0.2-0.1-0.4-0.3-0.7-0.5c-1.6-1-2.4-2.6-1.9-4.5
			c0.3-1.4,0.9-2.7,1.3-4.1c0.4-1.7-1.4-3.4-2.8-2.7c-0.9,0.4-1.6,1.4-2.1,2.3c-0.8,1.4-1.3,2.9-1.9,4.4c-0.1,0.3-0.5,0.6-0.9,0.7
			c-0.7,0.2-1.5,0.2-2.2,0.3c-2,0.1-3.4-0.6-4-2.7c-0.2-0.7-0.5-1.4-0.7-2.1c-0.3-1.1-0.9-2.2-0.9-3.3c0-0.8,0.7-1.7,1-2.6
			c0.6-1.7,1-3.5,1.6-5.2c0.3-0.9,0-1.6-0.5-2.2c-0.8-1-3-1-3.7-0.1c-1.3,1.8-1.2,4-1.7,6c-0.3,0.9-0.2,2-0.4,2.9
			c-0.3,1.3-0.8,2.5-0.9,3.8c0,0.9-0.5,0.9-1.1,1c-0.6,0.1-0.9-0.2-0.9-1c0-1.6-1.4-3.5-2.7-4.2c-2-1-4.8,0.5-6,2.1
			c-1.1,1.4-2.1,2.9-3.6,3.8c-1.7,0.9-3.3,1.9-5,2.8c-0.4,0.2-0.9,0.3-1.3,0.3c-2.4-0.2-3.1-2.2-3.8-4c-0.5-1.4-0.8-2.8-1.4-4.1
			c-0.2-0.5-0.9-1.2-1.3-1.2c-0.6,0-1.3,0.5-1.8,1c-1,1.1-0.8,2.5-1.1,3.8c-0.7,3-1.1,6-1.7,8.9c-0.1,0.5-0.7,1-1.2,1.3
			c-1.3,0.7-2.7,1.2-3.5,2.6c-1,1.6-1.9,3.2-2.9,4.8c-0.1,0.2-0.2,0.5-0.4,0.8c-0.6,0.8-1.3,1.6-1.8,2.5c-0.9,1.5-2.8,2.4-3,4.4
			c0,0-0.1,0-0.1,0.1c-0.9,1.6-2.5,1.7-4.1,1.9c-1.8,0.2-4.2,1.9-3.9,4.2c0.2,2,0.3,4.1,0.4,6.1c0,0.6-0.3,1.2-0.5,1.8
			c-0.4,1.6-0.9,3.3-1.3,4.9c-0.1,0.5-0.5,1-0.1,1.7c0.2,0.2-0.2,0.9-0.4,1.3c-0.9,1.8-2.6,3-3.4,4.9c-0.4,1-0.5,1.8,0.1,2.7
			c1,1.4,1,2.9,0.3,4.2c-0.7,1.4-1.1,2.7-1,4.2c0.1,1,0.4,2.1,0.6,3.1c0.3,1.8,0.4,3.7,1.9,5.2c0.3,0.3,0.4,0.9,0.4,1.4
			c0.1,1,0.1,2,0.1,3c0,0.9,0.1,1.8,0.1,2.7c0,0.9,0.1,1.8,0.8,2.5c0.4,0.5,0.8,1.1,1,1.8c0.4,1.1,1,2,2.2,2.4
			c1.3,0.5,2.1,2.3,1.5,3.6c-0.4,0.9-0.8,1.7-1.3,2.9c0.8,0.2,1.6,0.5,2.3,0.4c1-0.1,2-0.4,2.7,0.4c1,1,1.8,2.2,2.7,3.3
			c0,0-0.1,0.1-0.1,0.2c-0.1,1.8,0.7,3,2.6,3.7c-0.3,0.3-0.5,0.4-0.7,0.6c-0.2,0.3-0.3,0.6-0.4,0.9c0.4,0,0.8,0.2,1.1,0.1
			c0.6-0.3,2.6-0.4,3.1,0c0.6,0.5,1.1,1,1.7,1.4c1.1,0.7,2.3,1.4,3.5,2c0.9,0.4,1.5,1,2,1.8c0.4,0.7,0.9,1.6,1.5,2
			c1.4,0.9,3,1,4.7,0.6c1-0.2,2-0.7,3-0.6c1.7,0.2,3.5,0.6,5.1,1.1c1.2,0.3,2.5,0.6,3.4,1.4c2.1,1.6,4.2,1.2,6.2,0.3
			c1.2-0.5,2.1-1.5,3.7-0.9c1.4,0.5,2.9,0.5,4.2,1c1.7,0.5,3.2,1.5,5.2,1.1c2.3-0.5,3-0.8,4-3.1c0.4-1,0.7-2.1,2-2.4
			c1.1-0.2,2.2-0.4,3.2-0.8c1.8-0.8,3.2-0.1,4.7,0.7c2.1,1,4.3,2,6.5,2.7c0.7,0.2,1.6-0.3,2.1-1.1c0.4-0.7,0.3-1.4-0.2-2
			c-0.4-0.5-0.8-1-1.3-1.7c0.7-0.1,1.1-0.1,1.6-0.2c0-0.1,0-0.2,0-0.3c-0.3-0.2-0.7-0.4-1-0.6c-0.7-0.7-2-0.6-2.4-1.7
			c-0.2-0.6-0.3-1.2-0.5-1.8c-0.3-0.8,0-1.4,0.5-2c1-1.2,2.4-1.6,3.7-2.1c1-0.4,2.1-0.8,3.1-1.3c1.3-0.5,2.3-1.5,3.4-2.3
			c1.7-1.3,3.7-2,5.5-3.2c1.2-0.8,2.1-2,1.8-3.7c-0.3-2.2,0.7-2.8,1.9-2.9c0.6,0,1.2,0.1,1.8,0.2c1.3,0.2,4.3-1.1,4.8-2.2
			c0.5-0.9,0.2-2.8-0.6-3.5c-0.8-0.7-1.7-1.2-2.3-1.9c-0.9-1-1.9-2-1.4-3.5c0.4-1.2,0.8-2.3,1-3.5c0.3-1.6,0.4-3.1,0.7-4.7
			c0.2-1.1,0.1-2.4,1.4-2.9c0.5-0.2,1.2-0.3,1.8-0.4c1.9-0.2,3.7-0.5,5.6-0.6c1.3-0.1,2.6,0.2,3.9,0.2c1.3,0,2.5-1.1,2.6-2.1
			c0.1-0.8-1.1-1.7-2.3-2c-1.6-0.4-3,0.5-4.5,0.6c-0.4,0.1-0.9,0.1-1.3,0.3c-0.7,0.4-2.1,0.1-2.6-0.6c-0.9-1.3-1.9-2.5-2.8-3.8
			c-1.2-1.7-1.6-3.5-1.9-5.3c-0.3-1.6-0.6-3.2-2-4.4c-0.6-0.5-1.3-1.1-1.5-1.8c-0.5-1.3,0.9-4.6,2.1-5.2c1.4-0.7,2.8-1.3,4.2-1.9
			c0.8-0.4,1.8-0.6,2.6-1c0.9-0.5,1.8-0.7,2.6-1.6c0.8-0.9,0.6-1.6,0.3-2.4c-0.3-0.6-0.8-1.5-1.9-1.1c-0.5,0.2-1.1,0-1.7-0.1
			c-0.2,0-0.4-0.3-0.5-0.4c0-0.2,0.1-0.6,0.2-0.6c1-0.1,1.6-0.9,2.3-1.5c1.6-1.2,3.5-1.7,4.9-3.3c1.1-1.2,2.7-2,4.2-2.9
			c2.1-1.3,4-2.7,6.2-3.6c1.5-0.6,2.8-1.5,4.3-2.2c0.8-0.4,1.6-1,2.3-1.4c0.5-0.3,0.9-0.8,0.4-1.2C429.5,28.1,428.7,28.2,428.3,28.4
			z"/>
	</g>
</g>
<g>
	<path class="st1" d="M102.1,166c-1.6-0.6-5-1.8-10.2-3.6c-5.2-1.8-9.8-3.9-13.8-6.4c-4-2.5-6-5.7-6-9.7c0-4,1.5-7.2,4.6-9.6
		c3.1-2.4,7.7-3.6,13.9-3.6c9.4,0,20,4.2,31.8,12.6l18.3-24.6c-15.8-12.4-32.9-18.6-51.2-18.6c-16.8,0-30.3,4.2-40.4,12.7
		c-10.2,8.5-15.3,19.5-15.3,33.1c0,11,3.7,19.8,11.2,26.5c7.5,6.7,17.1,12.3,28.9,16.9c5,2,10,4,15,6.1c5,2.1,8.8,4.3,11.5,6.7
		c2.7,2.4,4,5.2,4,8.4c0,4.6-1.7,8.1-5.1,10.6c-3.4,2.5-8.5,3.7-15.3,3.7c-6.6,0-13-1.3-19.3-3.9c-6.3-2.6-12.9-6.6-19.9-12
		l-18.6,25.8c7.6,6.2,16.5,11.2,26.8,15c10.3,3.8,20.2,5.7,29.8,5.7c12.6,0,23.4-2.1,32.4-6.3c9-4.2,15.8-9.8,20.5-16.9
		c4.7-7.1,7-15.1,7-24.1c0-12.2-3.6-21.5-10.9-28C124.7,176.2,114.7,170.6,102.1,166z"/>
	<path class="st1" d="M280.7,237c-9.4-6-23.3-9-41.6-9h-24.9c-8.2,0-14-1-17.5-3c-3.5-2-5.2-4.9-5.2-8.7c0-2.8,0.5-5,1.5-6.7
		c1-1.7,2.5-3.4,4.5-5.2c6.2,2,12.4,3,18.6,3c17,0,30.9-4.3,41.6-12.9c10.8-8.6,16.2-21,16.2-37.1c0-4-0.6-7.9-1.8-11.8
		c-1.2-3.9-2.7-7-4.4-9.4c13.3-1.8,23.8-5.8,26.9-7.1c0.6-0.3,0.3-1,0-1.3c-11.4-10.9-15.6-26.2-16.6-30.6c-0.2-0.8-1-0.9-1.3-0.7
		c-8.9,4.6-21.2,9.1-31.5,12.5c-3.3-1.7-6.2-2.8-6.2-2.8c-7.6-2.4-15.2-3.6-22.8-3.6c-10.8,0-20.8,2.1-30,6.3
		c-9.2,4.2-16.5,10.3-22,18.4c-5.5,8.1-8.2,17.7-8.2,28.9c0,8.2,1.8,15.7,5.5,22.5c3.7,6.8,8.4,12.2,14.2,16.2v1.2
		c-4.8,3.2-8.7,7.3-11.8,12.3c-3.1,5-4.6,10.1-4.6,15.3c0,11,4.5,19.4,13.5,25.2v1.2c-14.2,8-21.3,18.2-21.3,30.6
		c0,12.4,5.7,21.8,17.2,28.2c11.5,6.4,26.4,9.6,44.8,9.6c16.4,0,30.7-2.2,43-6.7c12.3-4.5,21.8-10.8,28.5-18.9
		c6.7-8.1,10-17.1,10-27.1C294.8,252.5,290.1,243,280.7,237z M200.1,137.1c4-4.5,9.3-6.7,15.9-6.7c6.6,0,11.9,2.2,16,6.7
		c4.1,4.5,6.1,10.8,6.1,19c0,8.4-2.1,14.9-6.1,19.5c-4.1,4.6-9.4,6.9-16,6.9c-6.4,0-11.6-2.3-15.7-7c-4.1-4.7-6.1-11.1-6.1-19.3
		C194.1,148,196.1,141.6,200.1,137.1z M245.3,286.6c-6.8,3.9-15.4,5.8-25.8,5.8c-10.6,0-19-1.6-25.2-4.8c-6.2-3.2-9.3-7.8-9.3-13.8
		c0-5.8,3.1-11.2,9.3-16.2c4.8,1.4,11.6,2.1,20.4,2.1h17.1c8.2,0,14.2,0.9,18,2.7c3.8,1.8,5.7,5.1,5.7,9.9
		C255.5,278,252.1,282.7,245.3,286.6z"/>
</g>
</svg>
