<?xml version="1.0" encoding="utf-8"?>
<!-- Generator: Adobe Illustrator 21.1.0, SVG Export Plug-In . SVG Version: 6.00 Build 0)  -->
<svg version="1.1" id="Layer_1" xmlns="http://www.w3.org/2000/svg" xmlns:xlink="http://www.w3.org/1999/xlink" x="0px" y="0px"
	 viewBox="0 0 475.1 219.6" style="enable-background:new 0 0 475.1 219.6;" xml:space="preserve">
<style type="text/css">
	.st0{fill:#D0CCD0;}
	.st1{fill:#1C1C20;}
	.st2{fill:#FFCC05;}
</style>
<g>
	<g>
		<g>
			<path class="st0" d="M93.9,141.9v12.5L0,111.9v-11.3L93.9,58v12.5l-78.7,35.7L93.9,141.9z"/>
			<path class="st0" d="M381.2,141.9l78.7-35.7l-78.7-35.7V58l93.9,42.6v11.3l-93.9,42.6V141.9z"/>
		</g>
	</g>
	<g>
		<path class="st1" d="M115.1,158.1v-23.1c6,4.2,12.2,7.7,18.5,10.3c6.3,2.6,11.6,3.9,15.9,3.9c4.5,0,8.3-1.1,11.5-3.3
			c3.2-2.2,4.8-4.8,4.8-7.9c0-3.1-1-5.7-3.1-7.8c-2.1-2.1-6.6-5.1-13.5-9c-13.8-7.7-22.9-14.3-27.1-19.7c-4.3-5.5-6.4-11.4-6.4-17.8
			c0-8.3,3.2-15.1,9.7-20.4c6.5-5.3,14.8-7.9,25-7.9c10.6,0,21.5,3,32.6,8.9v21.2c-12.7-7.7-23.1-11.5-31.2-11.5
			c-4.2,0-7.5,0.9-10.1,2.7c-2.6,1.8-3.8,4.1-3.8,7c0,2.5,1.2,4.9,3.5,7.2c2.3,2.3,6.4,5,12.2,8.2l7.7,4.4
			c18.1,10.2,27.1,21.5,27.1,33.9c0,8.9-3.5,16.1-10.4,21.8c-6.9,5.7-15.9,8.5-26.8,8.5c-6.4,0-12.2-0.7-17.2-2.1
			C129,164.3,122.7,161.8,115.1,158.1z"/>
	</g>
	<path class="st2" d="M386.1,16.4c-0.2-0.2-0.7-0.1-1,0c-0.5,0.2-0.9,0.5-1.4,0.7c-0.8,0.4-1.8,0.7-2.5,1.3c-1.2,1-2.5,1.7-3.9,2.2
		c-0.5,0.2-1,0.5-1.5,0.8c-0.6,0.4-1.2,0.9-1.9,1c-1.8,0.4-3.1,1.5-4.5,2.4c-0.6,0.4-1.2,0.6-1.9,0.5c-0.4-0.1-1,0.2-1.4,0.3
		c-0.2,0.1-0.3,0.3-0.4,0.3c-0.7,0.3-1.5,0.5-2.2,0.8c-0.6,0.2-1.1,0-1.5-0.5c-0.7-0.8-0.9-1.9-1.9-2.5c-0.4-0.3-0.6-0.9-1.1-1.2
		c-1.3-0.8-2.7-1.5-4-2.4c-0.6-0.4-1.1-0.9-1.5-1.4c-0.5-0.8,0-3.2,1-3.7c0.8-0.4,0.9-1.2,1.4-1.8c0.4-0.4-0.1-2-0.7-2.4
		c-0.3-0.2-1.9-0.1-2.2,0.3c-1,1.1-2,2.3-2.9,3.5c-0.7,0.9-1.1,1.1-2,0.6c-0.2-0.1-0.3-0.2-0.4-0.3c-1.1-0.7-1.6-1.8-1.3-3
		c0.2-0.9,0.6-1.8,0.9-2.7c0.3-1.1-0.9-2.3-1.9-1.8c-0.6,0.3-1.1,0.9-1.4,1.5c-0.5,0.9-0.8,2-1.3,3c-0.1,0.2-0.4,0.4-0.6,0.4
		c-0.5,0.1-1,0.1-1.5,0.2c-1.4,0.1-2.3-0.4-2.7-1.8c-0.1-0.5-0.3-0.9-0.4-1.4c-0.2-0.7-0.6-1.5-0.6-2.2c0-0.6,0.5-1.1,0.6-1.7
		c0.4-1.2,0.7-2.4,1.1-3.5c0.2-0.6,0-1.1-0.4-1.5c-0.6-0.7-2-0.7-2.5,0c-0.9,1.2-0.8,2.7-1.2,4.1c-0.2,0.6-0.1,1.3-0.3,2
		c-0.2,0.9-0.6,1.7-0.6,2.6c0,0.6-0.4,0.6-0.7,0.7c-0.4,0-0.6-0.1-0.6-0.7c0-1.1-1-2.4-1.8-2.8c-1.4-0.7-3.2,0.3-4.1,1.4
		c-0.7,0.9-1.4,1.9-2.5,2.5c-1.1,0.6-2.2,1.3-3.4,1.9c-0.2,0.1-0.6,0.2-0.9,0.2c-1.6-0.2-2.1-1.5-2.5-2.7c-0.3-0.9-0.6-1.9-0.9-2.8
		C316,6.4,315.5,6,315.2,6c-0.4,0-0.9,0.3-1.2,0.6c-0.7,0.7-0.6,1.7-0.8,2.6c-0.5,2-0.7,4-1.2,6c-0.1,0.3-0.5,0.7-0.8,0.9
		c-0.8,0.5-1.8,0.8-2.3,1.7c-0.7,1.1-1.3,2.2-1.9,3.3c-0.1,0.2-0.2,0.4-0.3,0.5c-0.4,0.6-0.9,1.1-1.2,1.7c-0.6,1-1.9,1.6-2,3
		c0,0,0,0,0,0.1c-0.6,1-1.7,1.2-2.7,1.3c-1.2,0.1-2.8,1.3-2.6,2.9c0.2,1.4,0.2,2.7,0.3,4.1c0,0.4-0.2,0.8-0.3,1.2
		c-0.3,1.1-0.6,2.2-0.9,3.3c-0.1,0.4-0.3,0.7,0,1.1c0.1,0.2-0.1,0.6-0.3,0.8c-0.6,1.2-1.8,2-2.3,3.3c-0.3,0.7-0.3,1.2,0.1,1.8
		c0.7,0.9,0.7,1.9,0.2,2.8c-0.5,0.9-0.7,1.8-0.6,2.8c0.1,0.7,0.3,1.4,0.4,2.1c0.2,1.2,0.3,2.5,1.3,3.5c0.2,0.2,0.3,0.6,0.3,0.9
		c0.1,0.7,0,1.3,0.1,2c0,0.6,0.1,1.2,0.1,1.8c0,0.6,0.1,1.2,0.5,1.7c0.3,0.3,0.5,0.8,0.7,1.2c0.3,0.8,0.7,1.3,1.5,1.6
		c0.9,0.3,1.4,1.6,1,2.4c-0.3,0.6-0.5,1.2-0.9,2c0.6,0.1,1.1,0.3,1.5,0.3c0.7-0.1,1.4-0.2,1.9,0.2c0.7,0.7,1.2,1.5,1.8,2.2
		c0,0-0.1,0.1-0.1,0.1c0,1.2,0.5,2,1.7,2.5c-0.2,0.2-0.3,0.3-0.4,0.4c-0.1,0.2-0.2,0.4-0.3,0.6c0.2,0,0.5,0.2,0.7,0.1
		c0.4-0.2,1.7-0.2,2.1,0c0.4,0.3,0.7,0.7,1.2,0.9c0.8,0.5,1.6,1,2.4,1.3c0.6,0.3,1,0.7,1.3,1.2c0.3,0.5,0.6,1.1,1,1.4
		c0.9,0.6,2,0.6,3.1,0.4c0.7-0.2,1.4-0.4,2-0.4c1.2,0.1,2.3,0.4,3.5,0.7c0.8,0.2,1.7,0.4,2.3,0.9c1.4,1.1,2.8,0.8,4.2,0.2
		c0.8-0.3,1.4-1,2.5-0.6c0.9,0.3,1.9,0.4,2.9,0.7c1.1,0.4,2.1,1,3.5,0.8c1.6-0.3,2-0.5,2.7-2.1c0.3-0.7,0.4-1.4,1.3-1.6
		c0.7-0.2,1.5-0.3,2.1-0.6c1.2-0.5,2.1-0.1,3.2,0.4c1.4,0.7,2.9,1.3,4.4,1.8c0.5,0.2,1.1-0.2,1.4-0.8c0.3-0.5,0.2-0.9-0.1-1.3
		c-0.2-0.4-0.5-0.7-0.9-1.2c0.4,0,0.8-0.1,1.1-0.1c0-0.1,0-0.1,0-0.2c-0.2-0.1-0.5-0.2-0.7-0.4c-0.5-0.5-1.4-0.4-1.6-1.2
		c-0.1-0.4-0.2-0.8-0.3-1.2c-0.2-0.5,0-0.9,0.4-1.4c0.7-0.8,1.6-1.1,2.5-1.4c0.7-0.3,1.4-0.6,2.1-0.8c0.9-0.4,1.6-1,2.3-1.5
		c1.1-0.9,2.5-1.4,3.7-2.1c0.8-0.5,1.4-1.3,1.2-2.5c-0.2-1.5,0.5-1.9,1.3-2c0.4,0,0.8,0.1,1.2,0.1c0.9,0.1,2.9-0.8,3.2-1.5
		c0.3-0.6,0.1-1.9-0.4-2.4c-0.5-0.4-1.1-0.8-1.6-1.3c-0.6-0.7-1.3-1.3-0.9-2.4c0.2-0.8,0.5-1.6,0.7-2.4c0.2-1,0.3-2.1,0.5-3.2
		c0.1-0.7,0.1-1.6,1-1.9c0.4-0.2,0.8-0.2,1.2-0.2c1.3-0.2,2.5-0.3,3.8-0.4c0.9,0,1.8,0.1,2.7,0.1c0.8,0,1.7-0.7,1.8-1.4
		c0-0.6-0.7-1.1-1.6-1.3c-1.1-0.2-2,0.3-3,0.4c-0.3,0-0.6,0-0.9,0.2c-0.5,0.2-1.4,0.1-1.7-0.4c-0.6-0.9-1.3-1.7-1.9-2.6
		c-0.8-1.1-1-2.3-1.3-3.6c-0.2-1.1-0.4-2.2-1.3-2.9c-0.4-0.3-0.9-0.7-1-1.2c-0.3-0.9,0.6-3.1,1.4-3.5c0.9-0.5,1.9-0.9,2.8-1.3
		c0.6-0.2,1.2-0.4,1.7-0.7c0.6-0.3,1.2-0.5,1.8-1.1c0.5-0.6,0.4-1.1,0.2-1.6c-0.2-0.4-0.5-1-1.3-0.7c-0.3,0.1-0.7,0-1.1-0.1
		c-0.1,0-0.3-0.2-0.3-0.3c0-0.1,0.1-0.4,0.1-0.4c0.7-0.1,1.1-0.6,1.6-1c1-0.8,2.4-1.2,3.3-2.2c0.7-0.8,1.8-1.3,2.8-1.9
		c1.4-0.9,2.7-1.8,4.2-2.5c1-0.4,1.9-1,2.9-1.5c0.6-0.3,1-0.6,1.6-1C386.2,17,386.5,16.7,386.1,16.4z"/>
	<g>
		<path class="st1" d="M259.1,55.6h-10.3c-14.6,0-26.2,3.4-34.7,10.1c-8.5,6.7-12.7,15.9-12.7,27.5c0,15.8,8,27.3,24,34.4
			c-5.3,1.3-9.5,3.4-12.6,6.3c-3.1,2.8-4.7,6-4.7,9.4c0,4.6,3.6,9.2,10.9,13.8c-18.2,4.3-27.3,13.7-27.3,28.5
			c0,10.4,4.6,18.7,13.9,24.9c9.2,6.2,21.6,9.3,37.1,9.3c15.3,0,27.6-3.1,36.8-9.2c9.2-6.1,13.8-14.4,13.8-24.7
			c0-7.9-2.6-14.4-7.8-19.6c-3.1-3.1-6.5-5.4-10.3-7.1c-3.8-1.7-12.4-3.9-25.7-6.8c-8-1.7-13.4-3.4-16.5-5c-3-1.6-4.5-3.7-4.5-6.2
			c0-4.4,4.1-7.2,12.2-8.4c11.6-1.7,19.9-4.1,25-7c5.1-2.9,9.2-7.1,12.5-12.6c3.2-5.5,4.8-11,4.8-16.7c0-4.6-0.8-8.6-2.5-12.2
			c-1.7-3.5-4.6-7.5-8.9-11.8c8.1-0.1,15.3-1,21.4-2.3c-3.4-7.6-5-15.5-5.5-22.5C276.3,53.9,264.9,55.3,259.1,55.6z M236.8,169.3
			c10.5,0,19,1.6,25.6,4.8c6.6,3.2,9.9,7.3,9.9,12.3c0,5.1-2.6,9.1-7.9,11.9c-5.2,2.8-12.6,4.2-22.1,4.2c-20.2,0-30.2-5.6-30.2-16.8
			c0-4.8,2.3-8.7,6.9-11.8C223.6,170.8,229.5,169.3,236.8,169.3z M257.3,108.1c-4.1,3.7-9.1,5.6-15.2,5.6c-6.1,0-11.2-1.8-15.2-5.5
			c-4-3.7-6-8.3-6-13.9c0-5.5,2-10.2,6.1-14.2c4.1-3.9,9.1-5.9,14.9-5.9c6.1,0,11.3,1.9,15.4,5.7c4.1,3.8,6.1,8.5,6.1,14.2
			C263.4,99.7,261.3,104.3,257.3,108.1z"/>
	</g>
</g>
</svg>
